<svg width="174" height="65" viewBox="0 0 174 65" fill="none" xmlns="http://www.w3.org/2000/svg">
<rect x="1.25" y="1.57788" width="171.698" height="62.5" rx="12.75" fill="#090909" stroke="#A6A6A6" stroke-width="1.5"/>
<g clip-path="url(#clip0_67_958)">
<path d="M32.8444 39.7537C30.5095 39.7537 28.6204 37.9076 28.6204 35.6123C28.6204 33.3604 30.5095 31.4867 32.8444 31.4867C34.3961 31.4867 35.9479 32.1704 36.6082 33.4195C36.654 33.5062 36.7144 33.6224 36.7144 33.7682V37.4288C36.7144 37.5017 36.6685 37.6613 36.6373 37.7047C35.9166 38.9538 34.442 39.7537 32.8444 39.7537ZM40.5093 42.906V28.3777H36.7144V29.5973C35.6543 28.624 34.2108 28.0881 32.43 28.0881C28.0831 28.0881 24.7817 31.4295 24.7817 35.6123C24.7817 39.8128 28.0831 43.1976 32.43 43.1976C34.2108 43.1976 35.6543 42.6302 36.7144 41.6569V42.906H40.5093ZM56.9888 42.906V35.0468C56.9888 31.1813 53.8105 28.0881 49.7552 28.0881C45.6853 28.0881 42.5214 31.1813 42.5214 35.0468V42.906H46.3142V35.0468C46.3142 33.1436 47.7285 31.6896 49.7552 31.6896C51.7672 31.6896 53.196 33.1436 53.196 35.0468V42.906H56.9888ZM66.6346 39.7537C64.2998 39.7537 62.4106 37.9076 62.4106 35.6123C62.4106 33.3604 64.2998 31.4867 66.6346 31.4867C68.1864 31.4867 69.661 32.2137 70.3984 33.4195C70.4442 33.5062 70.5045 33.6224 70.5045 33.7682V37.4446C70.5045 37.5175 70.4587 37.6613 70.4295 37.7047C69.7068 38.9538 68.2322 39.7537 66.6346 39.7537ZM74.2995 42.906V24.0196H70.5045V29.5973C69.4464 28.624 68.0009 28.0428 66.2201 28.0428C61.8732 28.0428 58.5718 31.4295 58.5718 35.6123C58.5718 39.8128 61.8732 43.1976 66.2201 43.1976C68.0009 43.1976 69.4464 42.6302 70.5045 41.6569V42.906H74.2995ZM80.1044 42.906V35.1473C80.1044 32.8521 81.3791 31.6325 83.8056 31.6325V28.0881C78.9213 28.0881 76.3116 30.543 76.3116 35.1473V42.906H80.1044ZM92.0997 39.5803C89.796 39.5803 87.9235 37.8071 87.9235 35.6123C87.9235 33.4333 89.796 31.6621 92.0997 31.6621C94.4345 31.6621 96.2945 33.4333 96.2945 35.6123C96.2945 37.8071 94.4345 39.5803 92.0997 39.5803ZM92.0997 43.1976C96.5403 43.1976 100.133 39.8128 100.133 35.6123C100.133 31.4295 96.5403 28.0881 92.0997 28.0881C87.6778 28.0881 84.0828 31.4295 84.0828 35.6123C84.0828 39.8128 87.6778 43.1976 92.0997 43.1976ZM103.757 27.2744C104.972 27.2744 105.955 26.3287 105.955 25.182C105.955 24.0196 104.972 23.0896 103.757 23.0896C102.545 23.0896 101.562 24.0196 101.562 25.182C101.562 26.3287 102.545 27.2744 103.757 27.2744ZM105.646 28.3777H101.851V42.906H105.646V28.3777ZM115.432 39.7537C113.097 39.7537 111.208 37.9076 111.208 35.6123C111.208 33.3604 113.097 31.4867 115.432 31.4867C116.983 31.4867 118.456 32.2137 119.193 33.4195C119.241 33.5062 119.302 33.6224 119.302 33.7682V37.4584C119.302 37.5313 119.256 37.6613 119.225 37.7047C118.504 38.9538 117.029 39.7537 115.432 39.7537ZM123.095 42.906V24.0196H119.302V29.5973C118.242 28.624 116.798 28.0881 115.017 28.0881C110.67 28.0881 107.367 31.4295 107.367 35.6123C107.367 39.8128 110.67 43.2114 115.017 43.2114C116.798 43.2114 118.242 42.6302 119.302 41.6569V42.906H123.095Z" fill="#77C159"/>
<path d="M143.093 42.9067L149.329 28.3626H146.197L141.096 40.9739H142.156L137.043 28.3784H133.816L140.052 42.9067H143.093ZM133.064 43.0801L133.079 40.4952H132.741C130.515 40.4952 128.946 39.2303 128.946 37.0946V30.7761H132.956V28.3784H128.946V24.4399H126.168V37.0946C126.168 40.8577 128.749 43.0801 132.741 43.0801H133.064Z" fill="#868686"/>
</g>
<defs>
<clipPath id="clip0_67_958">
<rect width="161.912" height="25.0442" fill="white" transform="translate(6.09912 23.519)"/>
</clipPath>
</defs>
</svg>
